@startuml
top to bottom direction
skinparam package {
    BackgroundColor #fafafa
}
skinparam defaulttextalignment center
skinparam noteTextAlignment left
package "github.com/codemityio/go/pkg/transform" as github_com_codemityio_go_pkg_transform {
    class "<b><font color=#1c1c1c>Transformer</font></b>" as github_com_codemityio_go_pkg_transform_Transformer << (I, #e4f58e) >> {
        + Transform <font color=#1f38b5>(input any, output any) (error)</font>
    }
    class "<b><font color=#1c1c1c>JSON</font></b>" as github_com_codemityio_go_pkg_transform_JSON << (S, #b5558d) >> {
        + IsMarshal <font color=#1f38b5>(err error) (bool)</font>
        + IsUnmarshal <font color=#1f38b5>(err error) (bool)</font>
        + Transform <font color=#1f38b5>(input any, output any) (error)</font>
    }
    class "<b><font color=#1c1c1c>ErrPkg</font></b>" as github_com_codemityio_go_pkg_transform_ErrPkg << (V, #edb4ab) >> {}
    class "<b><font color=#1c1c1c>ErrMarshal</font></b>" as github_com_codemityio_go_pkg_transform_ErrMarshal << (V, #edb4ab) >> {}
    class "<b><font color=#1c1c1c>ErrUnmarshal</font></b>" as github_com_codemityio_go_pkg_transform_ErrUnmarshal << (V, #edb4ab) >> {}
    class "<b><font color=#1c1c1c>NewJSON</font></b><font color=#1f38b5>() (*JSON)</font>" as github_com_codemityio_go_pkg_transform_NewJSON << (F, #dbcb8f) >> {}
}
package "github.com/codemityio/go/pkg/transform" as github_com_codemityio_go_pkg_transform {
    class "interface" as _interface << (I, #e4f58e) >> {}
    class "any" as _any << (I, #e4f58e) >> {}
    class "error" as _error << (I, #e4f58e) >> {}
    class "struct" as _struct << (S, #b5558d) >> {}
    class "error" as _error << (I, #e4f58e) >> {}
    class "error" as _error << (I, #e4f58e) >> {}
    class "any" as _any << (I, #e4f58e) >> {}
    class "error" as _error << (I, #e4f58e) >> {}
    class "error" as error << (I, #e4f58e) >> {}
    class "error" as error << (I, #e4f58e) >> {}
    class "error" as error << (I, #e4f58e) >> {}
}
package "github.com/codemityio/go/pkg/transform" as github_com_codemityio_go_pkg_transform {
    github_com_codemityio_go_pkg_transform_Transformer #...up...> _interface
    github_com_codemityio_go_pkg_transform_Transformer ...up...> _any
    github_com_codemityio_go_pkg_transform_Transformer ...up...> _error
    github_com_codemityio_go_pkg_transform_JSON #...up...> _struct
    github_com_codemityio_go_pkg_transform_JSON ...up...|> github_com_codemityio_go_pkg_transform_Transformer
    github_com_codemityio_go_pkg_transform_JSON ...up...> _error
    github_com_codemityio_go_pkg_transform_JSON ...up...> _any
    github_com_codemityio_go_pkg_transform_ErrPkg ...up...|> error
    github_com_codemityio_go_pkg_transform_ErrMarshal ...up...|> error
    github_com_codemityio_go_pkg_transform_ErrUnmarshal ...up...|> error
    github_com_codemityio_go_pkg_transform_NewJSON ....up....> github_com_codemityio_go_pkg_transform_JSON
}
@enduml

