@startuml
top to bottom direction
skinparam package {
    BackgroundColor #fafafa
}
skinparam defaulttextalignment center
skinparam noteTextAlignment left
package "github.com/codemityio/go/pkg/strings" as github_com_codemityio_go_pkg_strings {
    class "<b><font color=#1c1c1c>Initialism</font></b>" as github_com_codemityio_go_pkg_strings_Initialism << (S, #b5558d) >> {
        - list <font color=#1f38b5>map[string]struct</font>
        + ToPascal <font color=#1f38b5>(value string) (string)</font>
        + ToCamel <font color=#1f38b5>(value string) (string)</font>
        + ToKebab <font color=#1f38b5>(value string) (string)</font>
        + ToSnake <font color=#1f38b5>(value string) (string)</font>
    }
    class "<b><font color=#1c1c1c>InitialismOption</font></b>" as github_com_codemityio_go_pkg_strings_InitialismOption << (F, #739e78) >> {
    }
    class "<b><font color=#1c1c1c>NewInitialism</font></b><font color=#1f38b5>(options ...InitialismOption) (*Initialism)</font>" as github_com_codemityio_go_pkg_strings_NewInitialism << (F, #dbcb8f) >> {}
    class "<b><font color=#1c1c1c>WithInitialismList</font></b><font color=#1f38b5>(list []string) (InitialismOption)</font>" as github_com_codemityio_go_pkg_strings_WithInitialismList << (F, #dbcb8f) >> {}
}
package "github.com/codemityio/go/pkg/strings" as github_com_codemityio_go_pkg_strings {
    class "struct" as _struct << (S, #b5558d) >> {}
    class "struct" as _struct << (S, #b5558d) >> {}
    class "func(initialism *Initialism)" as github_com_codemityio_go_pkg_strings_func_initialism__Initialism_ << (F, #739e78) >> {}
}
package "github.com/codemityio/go/pkg/strings" as github_com_codemityio_go_pkg_strings {
    github_com_codemityio_go_pkg_strings_Initialism #...up...> _struct
    github_com_codemityio_go_pkg_strings_Initialism o---up---> _struct
    github_com_codemityio_go_pkg_strings_InitialismOption #...up...> github_com_codemityio_go_pkg_strings_Initialism
    github_com_codemityio_go_pkg_strings_InitialismOption #...up...> github_com_codemityio_go_pkg_strings_func_initialism__Initialism_
    github_com_codemityio_go_pkg_strings_NewInitialism ....up....> github_com_codemityio_go_pkg_strings_InitialismOption
    github_com_codemityio_go_pkg_strings_NewInitialism ....up....> github_com_codemityio_go_pkg_strings_Initialism
    github_com_codemityio_go_pkg_strings_WithInitialismList ....up....> github_com_codemityio_go_pkg_strings_InitialismOption
}
@enduml

